# This file uses centimeters as units for non-parametric coordinates.

mtllib laneSign.mtl
g default
v -1.762011 0.009575 -1.269852
v -1.728199 3.484329 -0.024218
v -2.214554 0.003938 -1.241790
v -2.180737 3.478692 0.003843
v -1.757340 4.047879 -0.241585
v -1.792746 0.005876 -1.733386
v -2.209878 4.042242 -0.213524
v -2.245289 0.000239 -1.705325
v -1.360548 0.478667 1.583259
v -1.870618 0.429332 1.599522
v -1.882134 5.342777 -0.020215
v -2.392204 5.293443 -0.003952
v -1.882134 5.107189 -0.734871
v -2.392204 5.057854 -0.718608
v -1.360548 0.243079 0.868604
v -1.870618 0.193744 0.884867
v 2.728130 0.359643 1.495591
v 2.579066 6.201358 -0.371690
v 2.735194 0.505061 1.877666
v 2.586740 6.325822 0.017081
v -2.505426 0.376602 2.019974
v -2.782402 6.709276 0.000304
v -2.513100 0.252138 1.631204
v -2.790076 6.584811 -0.388466
v -1.296446 0.400711 1.990657
v -1.493968 6.631278 -0.000158
v -1.501642 6.506814 -0.388929
v -1.304121 0.276247 1.601887
v 0.103793 0.423538 1.934554
v -0.084176 6.518887 -0.013160
v -0.091471 6.400563 -0.382749
v 0.096498 0.305214 1.564964
v 1.338764 0.470046 1.895286
v 1.159832 6.425151 -0.007707
v 1.152537 6.306827 -0.377296
v 1.332078 0.330769 1.532393
v 1.175709 6.500088 -0.439626
v 2.601465 6.569275 -0.489921
v 1.183382 6.624553 -0.050856
v 2.609140 6.693740 -0.101150
v 2.370420 3.357698 0.539169
v 1.239800 3.402246 0.550882
v -0.000111 3.437998 0.563912
v -1.405639 3.478528 0.578681
v -2.259018 2.622486 0.845770
v -2.251343 2.746951 1.234540
v -1.397965 3.602993 0.967452
v 0.007184 3.556322 0.933501
v 1.247096 3.520569 0.920471
v 2.378094 3.482163 0.927940
v -0.095482 6.592867 -0.015467
v -0.103157 6.468402 -0.404237
v -1.485770 6.829552 -0.492567
v -1.478095 6.954016 -0.103796
v -1.297921 0.078122 1.665194
v -1.290247 0.202586 2.053965
v 0.103511 0.049399 1.646725
v 0.111185 0.173863 2.035496
v 1.339003 0.286750 1.546349
v 1.345218 0.411343 1.935107
v 2.729599 0.165160 1.557826
v 2.735814 0.289752 1.946584
v 1.248522 3.543697 0.992712
v 2.379141 3.499150 0.980999
v 2.587787 6.342809 0.070140
v 1.161258 6.448278 0.064534
v 2.610187 6.710727 -0.048091
v 1.184430 6.641540 0.002204
v 2.736242 0.522048 1.930725
v 1.340190 0.493174 1.967527
v 1.353503 0.427697 1.988226
v 2.731083 0.307244 1.999596
v -1.395246 3.626837 1.041806
v 0.009903 3.580167 1.007854
v -0.082102 6.539615 0.062126
v -1.491895 6.652007 0.075127
v 0.106162 0.450012 2.008014
v -1.294078 0.427185 2.064118
v -0.094054 6.610476 0.060751
v -1.476666 6.971626 -0.027578
v -1.288230 0.231686 2.126533
v 0.113203 0.202963 2.108064
v -1.475754 7.287230 -0.210520
v -1.483429 7.162765 -0.599291
v -2.766552 7.040661 -0.534871
v -2.758878 7.165125 -0.146100
v 3.124689 3.497604 0.908259
v 3.117014 3.373139 0.519488
v 3.325661 6.216799 -0.391371
v 3.333335 6.341264 -0.002600
v 3.474725 0.375084 1.475910
v 3.481789 0.520502 1.857985
v 2.740853 -0.021214 1.633667
v 2.747686 0.124197 2.015748
v 3.487055 0.005580 1.610359
v 3.493888 0.150991 1.992440
v 2.170515 0.009575 -1.269852
v 2.136703 3.484329 -0.024218
v 2.623059 0.003938 -1.241790
v 2.589242 3.478692 0.003843
v 2.165844 4.047879 -0.241585
v 2.201251 0.005876 -1.733386
v 2.618383 4.042242 -0.213524
v 2.653794 0.000239 -1.705325
v 1.769053 0.478667 1.583259
v 2.279123 0.429332 1.599522
v 2.290638 5.342777 -0.020215
v 2.800708 5.293443 -0.003952
v 2.290638 5.107189 -0.734871
v 2.800709 5.057854 -0.718608
v 1.769053 0.243079 0.868604
v 2.279123 0.193744 0.884867
vt 0.967855 0.241453
vt 0.567243 0.276898
vt 0.562890 0.227688
vt 0.963495 0.192244
vt 0.935297 0.919133
vt 0.904461 0.479777
vt 0.859053 0.482869
vt 0.889379 0.922156
vt 0.901252 0.422239
vt 0.855419 0.425944
vt 0.892399 0.968264
vt 0.939240 0.964925
vt 0.979810 0.899733
vt 0.951562 0.523525
vt 0.842627 0.908801
vt 0.820089 0.531647
vt 0.756673 0.892525
vt 0.716041 0.893813
vt 0.801704 0.833282
vt 0.791222 0.497023
vt 0.667307 0.837396
vt 0.739838 0.449039
vt 0.705605 0.450096
vt 0.740883 0.498700
vt 0.751460 0.834757
vt 0.707602 0.499722
vt 0.717556 0.835801
vt 0.966787 0.112020
vt 0.967480 0.148838
vt 0.597795 0.155849
vt 0.597109 0.118936
vt 0.289926 0.026611
vt 0.289926 0.026611
vt 0.518025 0.017968
vt 0.518025 0.017968
vt 0.307560 0.496589
vt 0.303816 0.399116
vt 0.547063 0.401289
vt 0.554983 0.482861
vt 0.307560 0.496589
vt 0.554983 0.482861
vt 0.319948 0.878128
vt 0.395431 0.953974
vt 0.035591 0.990128
vt 0.045020 0.878954
vt 0.547063 0.401289
vt 0.547063 0.401289
vt 0.554983 0.482861
vt 0.554983 0.482861
vt 0.045915 0.512071
vt 0.046594 0.396819
vt 0.046594 0.396819
vt 0.045915 0.512071
vt 0.303816 0.399116
vt 0.299008 0.266942
vt 0.536973 0.268826
vt 0.547063 0.401289
vt 0.542433 0.269772
vt 0.542433 0.269772
vt 0.572958 0.399064
vt 0.572958 0.399064
vt 0.326193 0.756729
vt 0.057246 0.757329
vt 0.030680 0.396684
vt 0.030680 0.396684
vt 0.026824 0.264868
vt 0.026824 0.264868
vt 0.299008 0.266942
vt 0.294766 0.150341
vt 0.528071 0.151972
vt 0.536973 0.268826
vt 0.528071 0.151972
vt 0.536973 0.268826
vt 0.331705 0.649651
vt 0.068026 0.650035
vt 0.047371 0.264949
vt 0.047371 0.264949
vt 0.048057 0.148617
vt 0.048057 0.148617
vt 0.294766 0.150341
vt 0.289926 0.026611
vt 0.518025 0.017968
vt 0.528071 0.151972
vt 0.547541 0.015027
vt 0.543562 0.149354
vt 0.543562 0.149354
vt 0.547541 0.015027
vt 0.337720 0.552036
vt 0.080200 0.526996
vt 0.045468 0.147945
vt 0.045468 0.147945
vt 0.027704 0.017709
vt 0.027704 0.017709
vt 0.050536 0.647556
vt 0.046866 0.524148
vt 0.547541 0.015027
vt 0.543562 0.149354
vt 0.518025 0.017968
vt 0.518025 0.017968
vt 0.610539 0.649248
vt 0.610473 0.528510
vt 0.610599 0.756109
vt 0.610668 0.877244
vt 0.610596 0.981797
vt 0.047371 0.264949
vt 0.046594 0.396819
vt 0.048831 0.017177
vt 0.048057 0.148617
vt 0.048831 0.017177
vt 0.048831 0.017177
vt 0.015776 0.876785
vt 0.051071 0.758172
vt 0.547063 0.401289
vt 0.542433 0.269772
vt 0.572958 0.399064
vt 0.633821 0.756134
vt 0.628654 0.877198
vt 0.030680 0.396684
vt 0.026824 0.264868
vt 0.628118 0.528857
vt 0.614545 0.648758
vt 0.048831 0.017177
vt 0.048831 0.017177
vt 0.045468 0.147945
vt 0.027704 0.017709
vt 0.289926 0.026611
vt 0.289926 0.026611
vt 0.048831 0.017177
vt 0.048831 0.017177
vt 0.048831 0.017177
vt 0.048831 0.017177
vt 0.967855 0.241453
vt 0.963495 0.192244
vt 0.562890 0.227688
vt 0.567243 0.276898
vt 0.935297 0.919133
vt 0.889379 0.922156
vt 0.859053 0.482869
vt 0.904461 0.479777
vt 0.855419 0.425944
vt 0.901252 0.422239
vt 0.939240 0.964925
vt 0.892399 0.968264
vt 0.951562 0.523525
vt 0.979810 0.899733
vt 0.842627 0.908801
vt 0.820089 0.531647
vt 0.966787 0.112020
vt 0.597109 0.118936
vt 0.597795 0.155849
vt 0.967480 0.148838
vt 0.740883 0.498700
vt 0.751460 0.834757
vt 0.717556 0.835801
vt 0.707602 0.499722
vt 0.716041 0.893813
vt 0.756673 0.892525
vt 0.801704 0.833282
vt 0.791222 0.497023
vt 0.739838 0.449039
vt 0.705605 0.450096
vt 0.667307 0.837396
vn 0.062448 -0.337333 0.939312
vn 0.062448 -0.337333 0.939312
vn 0.062448 -0.337333 0.939312
vn 0.062448 -0.337333 0.939312
vn -0.062359 0.346052 -0.936141
vn -0.062359 0.346052 -0.936141
vn -0.062359 0.346052 -0.936141
vn -0.062359 0.346052 -0.936141
vn 0.053208 0.361752 0.930755
vn 0.053208 0.361752 0.930755
vn 0.053208 0.361752 0.930755
vn 0.053208 0.361752 0.930755
vn 0.012898 -0.999891 0.007125
vn 0.012898 -0.999892 0.007125
vn 0.012898 -0.999892 0.007125
vn 0.012898 -0.999891 0.007125
vn 0.997157 0.017509 -0.073291
vn 0.997157 0.017509 -0.073291
vn 0.997157 0.017509 -0.073291
vn 0.997157 0.017509 -0.073291
vn -0.997157 -0.017508 0.073292
vn -0.997157 -0.017508 0.073292
vn -0.997157 -0.017508 0.073292
vn -0.997157 -0.017508 0.073292
vn -0.000000 0.313081 0.949726
vn -0.000000 0.313081 0.949726
vn -0.000000 0.313081 0.949726
vn -0.000000 0.313081 0.949726
vn 0.000001 -0.313081 -0.949726
vn 0.000001 -0.313081 -0.949726
vn 0.000001 -0.313081 -0.949726
vn 0.000001 -0.313081 -0.949726
vn 0.101317 -0.944840 0.311469
vn 0.101317 -0.944840 0.311469
vn 0.101317 -0.944840 0.311469
vn 0.101317 -0.944840 0.311469
vn 0.994854 0.096223 -0.031720
vn 0.994854 0.096223 -0.031720
vn 0.994854 0.096223 -0.031720
vn 0.994854 0.096223 -0.031720
vn -0.101318 0.944839 -0.311470
vn -0.101318 0.944839 -0.311470
vn -0.101318 0.944839 -0.311470
vn -0.101318 0.944839 -0.311470
vn -0.994854 -0.096223 0.031720
vn -0.994854 -0.096223 0.031720
vn -0.994854 -0.096223 0.031720
vn -0.994854 -0.096223 0.031720
vn 0.999505 0.017046 -0.026437
vn 0.999505 0.017049 -0.026438
vn 0.997392 -0.072095 0.003393
vn 0.997392 -0.072095 0.003393
vn 0.006545 0.306168 0.951955
vn 0.008767 0.302666 0.953056
vn 0.011030 0.301737 0.953328
vn 0.011281 0.301837 0.953293
vn -0.998952 -0.034028 0.030613
vn -0.998960 -0.033848 0.030556
vn -0.993861 -0.098159 0.051044
vn -0.993849 -0.098265 0.051078
vn -0.014237 -0.303862 -0.952610
vn -0.006545 -0.306168 -0.951955
vn -0.011281 -0.301837 -0.953293
vn -0.014670 -0.303199 -0.952814
vn -0.105312 0.947689 -0.301322
vn -0.105312 0.947689 -0.301322
vn -0.105312 0.947689 -0.301322
vn -0.105312 0.947689 -0.301322
vn 0.026368 -0.952203 0.304327
vn 0.026368 -0.952203 0.304327
vn 0.026368 -0.952203 0.304327
vn 0.026368 -0.952203 0.304327
vn 0.033132 0.305149 0.951728
vn 0.033133 0.305148 0.951729
vn 0.032372 0.302886 0.952477
vn 0.032110 0.302082 0.952741
vn 0.259223 0.922277 -0.286721
vn 0.259001 0.918389 -0.299133
vn 0.259001 0.918389 -0.299133
vn 0.259219 0.922192 -0.286997
vn -0.018797 -0.304851 -0.952214
vn -0.018797 -0.304851 -0.952214
vn -0.015277 -0.948621 0.316047
vn -0.015494 -0.952180 0.305146
vn -0.015494 -0.952180 0.305146
vn -0.015276 -0.948598 0.316116
vn 0.018797 0.304851 0.952215
vn 0.018797 0.304851 0.952214
vn 0.018797 0.304851 0.952215
vn 0.018797 0.304851 0.952215
vn 0.072879 0.949432 -0.305398
vn 0.072879 0.949432 -0.305398
vn 0.072879 0.949432 -0.305398
vn 0.072879 0.949432 -0.305398
vn -0.019474 -0.304851 -0.952201
vn -0.019390 -0.304591 -0.952286
vn 0.037126 -0.942934 0.330904
vn 0.037126 -0.942934 0.330904
vn 0.037126 -0.942934 0.330904
vn 0.037126 -0.942934 0.330904
vn 0.020149 0.304851 0.952187
vn 0.020150 0.304895 0.952173
vn 0.019995 0.304325 0.952358
vn 0.019989 0.304328 0.952358
vn -0.056859 0.951167 -0.303396
vn -0.056859 0.951167 -0.303395
vn -0.056859 0.951167 -0.303395
vn -0.056859 0.951167 -0.303395
vn -0.020150 -0.304895 -0.952173
vn -0.019995 -0.304325 -0.952358
vn -0.085447 -0.948409 0.305320
vn -0.085447 -0.948408 0.305320
vn -0.085447 -0.948408 0.305320
vn -0.085447 -0.948409 0.305320
vn -0.018797 -0.304852 -0.952214
vn -0.018797 -0.304852 -0.952214
vn -0.993374 0.113690 -0.016790
vn -0.999726 0.019055 0.013634
vn -0.993374 0.113690 -0.016790
vn -0.993374 0.113690 -0.016790
vn 0.018797 0.304851 0.952214
vn 0.018797 0.304851 0.952214
vn 0.997801 -0.066265 0.001517
vn 0.998147 -0.060843 -0.000224
vn 0.998147 -0.060843 -0.000224
vn 0.998147 -0.060843 -0.000225
vn -0.019485 -0.305154 -0.952104
vn -0.020174 -0.305456 -0.951992
vn -0.018797 -0.304851 -0.952215
vn -0.013433 -0.306309 -0.951837
vn -0.005015 -0.308577 -0.951186
vn -0.994670 0.102277 -0.013109
vn -0.994670 0.102277 -0.013109
vn 0.005015 0.308577 0.951186
vn 0.005015 0.308577 0.951186
vn 0.033145 0.305128 0.951735
vn 0.033145 0.305128 0.951734
vn 0.018797 0.304851 0.952215
vn 0.018797 0.304851 0.952214
vn 0.020174 0.305460 0.951991
vn 0.020174 0.305460 0.951991
vn 0.993347 0.101446 -0.054510
vn 0.993347 0.101446 -0.054510
vn 0.998435 0.037255 -0.041715
vn 0.986605 0.148698 -0.067081
vn 0.986605 0.148698 -0.067081
vn 0.986417 0.150371 -0.066109
vn -0.018797 -0.304851 -0.952215
vn -0.018797 -0.304851 -0.952215
vn -0.998729 0.050280 0.003618
vn -0.999664 0.008843 0.024384
vn -0.998715 0.050477 0.004597
vn -0.998729 0.050280 0.003618
vn 0.017583 0.257372 0.966153
vn 0.017583 0.257372 0.966153
vn -0.999113 -0.019580 0.037295
vn -0.999379 -0.022651 0.026979
vn -0.999379 -0.022651 0.026979
vn -0.999350 -0.022048 0.028537
vn -0.018797 -0.304851 -0.952214
vn -0.018797 -0.304851 -0.952214
vn -0.018797 -0.304851 -0.952214
vn -0.018797 -0.304851 -0.952214
vn 0.999482 0.019138 -0.025857
vn 0.999191 0.018048 -0.035931
vn 0.999453 0.018369 -0.027518
vn 0.999482 0.019138 -0.025857
vn 0.025698 0.345169 0.938189
vn 0.025698 0.345169 0.938189
vn 0.025698 0.345169 0.938189
vn 0.025698 0.345169 0.938189
vn -0.999079 -0.030406 0.030281
vn -0.993409 -0.101758 0.052771
vn -0.993409 -0.101758 0.052771
vn -0.992597 -0.102302 0.065459
vn -0.018796 -0.304851 -0.952215
vn -0.018796 -0.304851 -0.952215
vn -0.018796 -0.304851 -0.952215
vn -0.018796 -0.304851 -0.952215
vn 0.999854 -0.000374 -0.017093
vn 0.997126 0.065858 -0.037464
vn 0.999943 -0.000263 -0.010651
vn 0.999854 -0.000374 -0.017093
vn 0.018796 0.304851 0.952214
vn 0.018796 0.304851 0.952214
vn 0.018796 0.304851 0.952214
vn 0.018796 0.304851 0.952214
vn 0.999528 0.017405 -0.025304
vn 0.997486 -0.070807 0.002976
vn 0.999528 0.017402 -0.025303
vn -0.999414 -0.021522 0.026619
vn -0.999414 -0.021522 0.026619
vn -0.999607 -0.014102 0.024247
vn 0.998147 -0.060843 -0.000227
vn -0.056859 0.951169 -0.303389
vn -0.056859 0.951169 -0.303389
vn -0.993374 0.113690 -0.016789
vn 0.994324 0.095649 -0.046594
vn -0.999338 -0.023042 0.028141
vn -0.988541 -0.104059 0.109351
vn -0.085447 -0.948410 0.305315
vn -0.085447 -0.948410 0.305315
vn 0.999403 0.000517 0.034534
vn 0.999067 0.018360 -0.039082
vn 0.999017 0.022398 -0.038265
vn 0.999067 0.018360 -0.039082
vn -0.999043 -0.019143 0.039331
vn -0.999043 -0.019143 0.039331
vn -0.999289 -0.013180 0.035325
vn 0.999041 0.017596 -0.040088
vn -0.999005 -0.018623 0.040521
vn 0.985673 0.156687 -0.062435
vn 0.259674 0.939827 -0.222023
vn 0.259674 0.939827 -0.222023
vn -0.998619 0.051573 0.010034
vn -0.999135 -0.018722 0.037132
vn -0.014109 -0.927929 0.372490
vn -0.014109 -0.927929 0.372490
vn 0.999260 0.014637 -0.035582
vn 0.999474 -0.030906 -0.009835
vn 0.999474 -0.030906 -0.009835
vn 0.999474 -0.030906 -0.009835
vn 0.999474 -0.030906 -0.009835
vn -0.018797 -0.304852 -0.952214
vn -0.018797 -0.304852 -0.952214
vn -0.998618 0.052469 0.002914
vn -0.998618 0.052469 0.002914
vn 0.018797 0.304851 0.952214
vn 0.018797 0.304851 0.952214
vn -0.018829 -0.303738 -0.952570
vn -0.018829 -0.303738 -0.952570
vn -0.018829 -0.303738 -0.952569
vn -0.018829 -0.303738 -0.952569
vn -0.027715 0.952176 -0.304290
vn -0.027715 0.952176 -0.304290
vn -0.027715 0.952176 -0.304290
vn -0.027715 0.952176 -0.304290
vn 0.018829 0.303738 0.952569
vn 0.018829 0.303738 0.952569
vn 0.018829 0.303738 0.952569
vn 0.018829 0.303738 0.952569
vn -0.018766 -0.305902 -0.951878
vn -0.018766 -0.305902 -0.951878
vn -0.018766 -0.305902 -0.951878
vn -0.018766 -0.305902 -0.951878
vn 0.018766 0.305909 0.951876
vn 0.018766 0.305909 0.951876
vn 0.018766 0.305909 0.951876
vn 0.018766 0.305909 0.951876
vn 0.044613 -0.933939 0.354638
vn 0.044613 -0.933939 0.354638
vn 0.044613 -0.933939 0.354638
vn 0.044613 -0.933939 0.354638
vn -0.999363 -0.023280 0.027034
vn -0.999363 -0.023280 0.027034
vn -0.999363 -0.023280 0.027034
vn -0.999363 -0.023280 0.027034
vn -0.017387 -0.341835 -0.939599
vn -0.017387 -0.341835 -0.939599
vn -0.017387 -0.341835 -0.939599
vn -0.017387 -0.341835 -0.939599
vn 0.999366 0.023207 -0.027007
vn 0.999366 0.023207 -0.027007
vn 0.999366 0.023207 -0.027007
vn 0.999366 0.023207 -0.027007
vn 0.017387 0.341835 0.939599
vn 0.017387 0.341835 0.939599
vn 0.017387 0.341835 0.939599
vn 0.017387 0.341835 0.939599
vn -0.062448 -0.337333 0.939312
vn -0.062448 -0.337333 0.939312
vn -0.062448 -0.337333 0.939312
vn -0.062448 -0.337333 0.939312
vn 0.062359 0.346052 -0.936141
vn 0.062359 0.346052 -0.936141
vn 0.062359 0.346052 -0.936141
vn 0.062359 0.346052 -0.936141
vn -0.053208 0.361752 0.930755
vn -0.053208 0.361752 0.930755
vn -0.053208 0.361752 0.930755
vn -0.053208 0.361752 0.930755
vn -0.012898 -0.999891 0.007125
vn -0.012898 -0.999891 0.007125
vn -0.012898 -0.999892 0.007125
vn -0.012898 -0.999891 0.007125
vn -0.997157 0.017509 -0.073291
vn -0.997157 0.017509 -0.073291
vn -0.997157 0.017509 -0.073291
vn -0.997157 0.017509 -0.073291
vn 0.997157 -0.017508 0.073292
vn 0.997157 -0.017508 0.073292
vn 0.997157 -0.017508 0.073292
vn 0.997157 -0.017508 0.073292
vn 0.000000 0.313081 0.949726
vn 0.000000 0.313081 0.949726
vn 0.000000 0.313081 0.949726
vn 0.000000 0.313081 0.949726
vn -0.000001 -0.313081 -0.949726
vn -0.000001 -0.313081 -0.949726
vn -0.000001 -0.313081 -0.949726
vn -0.000001 -0.313081 -0.949726
vn -0.101317 -0.944840 0.311469
vn -0.101317 -0.944840 0.311469
vn -0.101317 -0.944840 0.311469
vn -0.101317 -0.944840 0.311469
vn -0.994854 0.096223 -0.031720
vn -0.994854 0.096223 -0.031720
vn -0.994854 0.096223 -0.031720
vn -0.994854 0.096223 -0.031720
vn 0.101318 0.944839 -0.311470
vn 0.101318 0.944839 -0.311470
vn 0.101318 0.944839 -0.311470
vn 0.101318 0.944839 -0.311470
vn 0.994854 -0.096223 0.031720
vn 0.994854 -0.096223 0.031720
vn 0.994854 -0.096223 0.031720
vn 0.994854 -0.096223 0.031720
s off
g laneSign
usemtl initialShadingGroup
f 2/1/1 4/4/2 3/3/3 1/2/4
f 6/5/5 8/8/6 7/7/7 5/6/8
f 5/6/9 7/7/10 4/10/11 2/9/12
f 1/12/13 3/11/14 8/8/15 6/5/16
f 5/6/17 2/14/18 1/13/19 6/5/20
f 8/8/21 3/15/22 4/16/23 7/7/24
f 9/28/25 11/31/26 12/30/27 10/29/28
f 13/24/29 15/25/30 16/27/31 14/26/32
f 10/18/33 16/27/34 15/25/35 9/17/36
f 9/19/37 15/25/38 13/24/39 11/20/40
f 11/22/41 13/24/42 14/26/43 12/23/44
f 12/23/45 14/26/46 16/27/47 10/21/48
s 1
f 87/32/49 88/33/50 89/34/51 90/35/52
s 2
f 46/36/53 47/37/54 26/38/55 22/39/56
s 3
f 45/40/57 46/36/58 22/39/59 24/41/60
s 4
f 44/42/61 45/43/62 24/44/63 27/45/64
s off
f 83/46/65 84/47/66 85/48/67 86/49/68
f 23/50/69 28/51/70 25/52/71 21/53/72
s 5
f 73/54/73 74/55/74 75/56/75 76/57/76
s 6
f 51/58/77 52/59/78 53/60/79 54/61/80
s 4
f 43/62/81 44/42/61 27/45/64 31/63/82
s 7
f 56/64/83 55/65/84 57/66/85 58/67/86
s 8
f 48/68/87 49/69/88 34/70/89 30/71/90
s off
f 34/70/91 35/72/92 31/73/93 30/71/94
s 4
f 42/74/95 43/62/81 31/63/82 35/75/96
s off
f 29/76/97 32/77/98 36/78/99 33/79/100
s 9
f 63/80/101 64/81/102 65/82/103 66/83/104
s 10
f 38/84/105 37/85/106 39/86/107 40/87/108
s 4
f 41/88/109 42/74/95 35/75/96 18/89/110
s 11
f 60/90/111 59/91/112 61/92/113 62/93/114
s 4
f 18/89/110 35/75/96 37/94/115 38/95/116
s 12
f 35/72/117 34/70/118 39/86/119 37/85/120
s 9
f 66/83/104 65/82/103 67/96/121 68/97/122
s 13
f 20/98/123 18/99/124 38/84/125 40/87/126
s 4
f 36/100/127 42/74/95 41/88/109 17/101/128
f 32/102/129 43/62/81 42/74/95 36/100/127
f 28/103/130 44/42/61 43/62/81 32/102/129
f 23/104/131 45/43/62 44/42/61 28/103/130
s 3
f 21/53/132 46/36/58 45/40/57 23/50/133
s 2
f 25/52/134 47/37/54 46/36/53 21/53/135
s 5
f 77/105/136 74/55/74 73/54/73 78/106/137
s 8
f 33/79/138 49/69/88 48/68/87 29/76/139
s 9
f 69/107/140 64/81/102 63/80/101 70/108/141
s 1
f 91/109/142 88/33/50 87/32/49 92/110/143
s 14
f 30/71/144 31/73/145 52/59/146 51/58/147
s 4
f 31/63/82 27/45/64 53/111/148 52/112/149
s 15
f 27/113/150 26/38/151 54/61/152 53/60/153
s 5
f 76/57/76 75/56/75 79/114/154 80/115/155
s 15
f 25/52/156 28/51/157 55/65/158 56/64/159
s off
f 28/103/160 32/102/161 57/116/162 55/117/163
s 14
f 32/77/164 29/76/165 58/67/166 57/66/167
s off
f 77/105/168 78/106/169 81/118/170 82/119/171
s 12
f 33/79/172 36/78/173 59/91/174 60/90/175
s off
f 36/100/176 17/101/177 61/120/178 59/121/179
s 13
f 17/122/180 19/123/181 62/93/182 61/92/183
s off
f 69/107/184 70/108/185 71/124/186 72/125/187
s 13
f 50/126/188 20/98/123 65/82/189 64/81/190
s 12
f 34/70/118 49/69/191 63/80/192 66/83/193
s 13
f 20/98/123 40/87/126 67/96/194 65/82/189
s 10
f 40/87/108 39/86/107 68/97/195 67/96/196
s 12
f 39/86/119 34/70/118 66/83/193 68/97/197
s 13
f 19/123/181 50/126/188 64/81/190 69/107/198
s 12
f 49/69/191 33/79/172 70/108/199 63/80/192
f 33/79/172 60/90/175 71/124/200 70/108/199
s 11
f 60/90/111 62/93/114 72/125/201 71/124/202
s 13
f 62/93/182 19/123/181 69/107/198 72/125/203
s 14
f 48/68/204 30/71/144 75/56/205 74/55/206
s 15
f 26/38/151 47/37/207 73/54/208 76/57/209
s 14
f 29/76/165 48/68/204 74/55/206 77/105/210
s 15
f 47/37/207 25/52/156 78/106/211 73/54/208
s 14
f 30/71/144 51/58/147 79/114/212 75/56/205
s 6
f 51/58/77 54/61/80 80/115/213 79/114/214
s 15
f 54/61/152 26/38/151 76/57/209 80/115/215
f 25/52/156 56/64/159 81/118/216 78/106/211
s 7
f 56/64/83 58/67/86 82/119/217 81/118/218
s 14
f 58/67/166 29/76/165 77/105/210 82/119/219
s off
f 26/38/220 27/113/221 84/47/222 83/46/223
s 4
f 27/113/64 24/41/63 85/48/224 84/47/225
s 3
f 24/41/60 22/39/59 86/49/226 85/48/227
s 2
f 22/39/56 26/38/55 83/46/228 86/49/229
s off
f 41/127/230 18/99/231 89/34/232 88/33/233
f 18/99/234 20/98/235 90/35/236 89/34/237
f 20/98/238 50/126/239 87/32/240 90/35/241
f 17/122/242 41/127/243 88/33/244 91/109/245
f 50/126/246 19/123/247 92/110/248 87/32/249
f 94/128/250 93/129/251 95/130/252 96/131/253
f 19/123/254 17/122/255 93/129/256 94/128/257
f 17/122/258 91/109/259 95/130/260 93/129/261
f 91/109/262 92/110/263 96/131/264 95/130/265
f 92/110/266 19/123/267 94/128/268 96/131/269
f 98/132/270 97/135/271 99/134/272 100/133/273
f 102/136/274 101/139/275 103/138/276 104/137/277
f 101/139/278 98/141/279 100/140/280 103/138/281
f 97/142/282 102/136/283 104/137/284 99/143/285
f 101/139/286 102/136/287 97/145/288 98/144/289
f 104/137/290 103/138/291 100/147/292 99/146/293
f 105/148/294 106/151/295 108/150/296 107/149/297
f 109/152/298 110/155/299 112/154/300 111/153/301
f 106/156/302 105/157/303 111/153/304 112/154/305
f 105/158/306 107/159/307 109/152/308 111/153/309
f 107/160/310 108/161/311 110/155/312 109/152/313
f 108/161/314 106/162/315 112/154/316 110/155/317
