# 3ds Max Wavefront OBJ Exporter v0.97b - (c)2007 guruware
# File Created: 25.11.2016 11:11:23

mtllib Level Block Assets.mtl

#
# object Block_1
#

v  -1.0000 -1.0000 -1.0000
v  1.0000 -1.0000 -1.0000
v  1.0000 -1.0000 1.0000
v  -1.0000 -1.0000 1.0000
v  1.0000 1.0000 1.0000
v  1.0000 1.0000 -1.0000
v  -1.0000 1.0000 -1.0000
v  -1.0000 1.0000 1.0000
# 8 vertices

vn 0.0000 -1.0000 -0.0000
vn 0.0000 1.0000 -0.0000
vn 0.0000 0.0000 1.0000
vn 1.0000 0.0000 -0.0000
vn 0.0000 0.0000 -1.0000
vn -1.0000 0.0000 -0.0000
# 6 vertex normals

vt 1.0000 1.0000 0.0000
vt 0.0000 1.0000 0.0000
vt 0.0000 0.0000 0.0000
vt 1.0000 0.0000 0.0000
# 4 texture coords

g Block_1
usemtl wire_184228153
s 2
f 1/1/1 2/2/1 3/3/1 4/4/1 
s 4
f 5/4/2 6/1/2 7/2/2 8/3/2 
s 8
f 3/4/3 5/1/3 8/2/3 4/3/3 
s 16
f 2/4/4 6/1/4 5/2/4 3/3/4 
s 32
f 1/4/5 7/1/5 6/2/5 2/3/5 
s 64
f 4/4/6 8/1/6 7/2/6 1/3/6 
# 6 polygons

#
# object Block_4_2
#

v  -1.0000 -1.0000 -1.0000
v  1.0000 -1.0000 -1.0000
v  1.0000 -1.0000 1.0000
v  -1.0000 -1.0000 1.0000
v  1.0000 -0.3333 1.0000
v  -1.0000 0.3333 1.0000
v  1.0000 -0.3333 -1.0000
v  -1.0000 0.3333 -1.0000
# 8 vertices

vn 0.0000 -1.0000 -0.0000
vn 0.0000 0.0000 1.0000
vn 1.0000 0.0000 -0.0000
vn 0.0000 0.0000 -1.0000
vn -1.0000 0.0000 -0.0000
vn 0.3162 0.9487 -0.0000
# 6 vertex normals

vt 1.0000 1.0000 0.0000
vt 0.0000 1.0000 0.0000
vt 0.0000 0.0000 0.0000
vt 1.0000 0.0000 0.0000
vt 1.0000 0.3333 0.0000
vt 0.0000 0.6667 0.0000
vt 0.0000 0.3333 0.0000
vt 1.0000 0.6667 0.0000
# 8 texture coords

g Block_4_2
usemtl wire_184228153
s 2
f 9/5/7 10/6/7 11/7/7 12/8/7 
s 8
f 13/9/8 14/10/8 12/7/8 11/8/8 
s 16
f 11/7/9 10/8/9 15/9/9 13/11/9 
s 32
f 9/8/10 16/9/10 15/11/10 10/7/10 
s 64
f 12/8/11 14/12/11 16/11/11 9/7/11 
s off
f 14/12/12 13/9/12 15/9/12 16/9/12 
# 6 polygons

#
# object Block_4_3
#

v  -1.0000 -1.0000 -1.0000
v  1.0000 -1.0000 -1.0000
v  1.0000 -1.0000 1.0000
v  -1.0000 -1.0000 1.0000
v  -1.0000 -0.3333 1.0000
v  -1.0000 -0.3333 -1.0000
# 6 vertices

vn 0.0000 -1.0000 -0.0000
vn 0.0000 0.0000 1.0000
vn 0.0000 0.0000 -1.0000
vn -1.0000 0.0000 -0.0000
vn 0.3162 0.9487 -0.0000
# 5 vertex normals

vt 1.0000 1.0000 0.0000
vt 0.0000 1.0000 0.0000
vt 0.0000 0.0000 0.0000
vt 1.0000 0.0000 0.0000
vt 0.0000 0.3333 0.0000
vt 1.0000 0.3333 0.0000
# 6 texture coords

g Block_4_3
usemtl wire_184228153
s 2
f 17/13/13 18/14/13 19/15/13 20/16/13 
s 8
f 21/17/14 20/15/14 19/16/14 
s 32
f 18/15/15 17/16/15 22/18/15 
s 64
f 20/16/16 21/18/16 22/17/16 17/15/16 
s off
f 22/18/17 21/18/17 19/16/17 18/14/17 
# 3 polygons - 2 triangles

#
# object Block_3_1
#

v  -1.0000 -1.0000 -1.0000
v  1.0000 -1.0000 -1.0000
v  1.0000 -1.0000 1.0000
v  -1.0000 -1.0000 1.0000
v  -1.0000 0.0000 1.0000
v  -1.0000 0.0000 -1.0000
# 6 vertices

vn 0.0000 -1.0000 -0.0000
vn 0.0000 0.0000 1.0000
vn 0.0000 0.0000 -1.0000
vn -1.0000 0.0000 -0.0000
vn 0.4472 0.8944 -0.0000
# 5 vertex normals

vt 1.0000 1.0000 0.0000
vt 0.0000 1.0000 0.0000
vt 0.0000 0.0000 0.0000
vt 1.0000 0.0000 0.0000
vt 0.0000 0.5000 0.0000
vt 1.0000 0.5000 0.0000
# 6 texture coords

g Block_3_1
usemtl wire_184228153
s 2
f 23/19/18 24/20/18 25/21/18 26/22/18 
s 8
f 26/21/19 25/22/19 27/23/19 
s 32
f 24/21/20 23/22/20 28/24/20 
s 64
f 27/24/21 28/23/21 23/21/21 26/22/21 
s off
f 28/24/22 27/24/22 25/22/22 24/20/22 
# 3 polygons - 2 triangles

#
# object Block_4_1
#

v  -1.0000 -1.0000 -1.0000
v  1.0000 -1.0000 -1.0000
v  1.0000 -1.0000 1.0000
v  -1.0000 -1.0000 1.0000
v  1.0000 0.3333 1.0000
v  -1.0000 1.0000 1.0000
v  1.0000 0.3333 -1.0000
v  -1.0000 1.0000 -1.0000
# 8 vertices

vn 0.0000 -1.0000 -0.0000
vn 0.0000 0.0000 1.0000
vn 1.0000 0.0000 -0.0000
vn 0.0000 0.0000 -1.0000
vn -1.0000 0.0000 -0.0000
vn 0.3162 0.9487 -0.0000
# 6 vertex normals

vt 1.0000 1.0000 0.0000
vt 0.0000 1.0000 0.0000
vt 0.0000 0.0000 0.0000
vt 1.0000 0.0000 0.0000
vt 1.0000 0.3333 0.0000
vt 0.0000 0.3333 0.0000
# 6 texture coords

g Block_4_1
usemtl wire_184228153
s 2
f 29/25/23 30/26/23 31/27/23 32/28/23 
s 8
f 33/29/24 34/26/24 32/27/24 31/28/24 
s 16
f 31/27/25 30/28/25 35/29/25 33/30/25 
s 32
f 29/28/26 36/29/26 35/30/26 30/27/26 
s 64
f 32/28/27 34/25/27 36/30/27 29/27/27 
s off
f 36/29/28 34/25/28 33/29/28 35/29/28 
# 6 polygons

#
# object Block_3_2
#

v  -1.0000 -1.0000 -1.0000
v  1.0000 -1.0000 -1.0000
v  1.0000 -1.0000 1.0000
v  -1.0000 -1.0000 1.0000
v  -1.0000 1.0000 1.0000
v  1.0000 0.0000 1.0000
v  1.0000 0.0000 -1.0000
v  -1.0000 1.0000 -1.0000
# 8 vertices

vn 0.0000 -1.0000 -0.0000
vn 0.0000 0.0000 1.0000
vn 1.0000 0.0000 -0.0000
vn 0.0000 0.0000 -1.0000
vn -1.0000 0.0000 -0.0000
vn 0.4472 0.8944 -0.0000
# 6 vertex normals

vt 1.0000 1.0000 0.0000
vt 0.0000 1.0000 0.0000
vt 0.0000 0.0000 0.0000
vt 1.0000 0.0000 0.0000
vt 1.0000 0.5000 0.0000
vt 0.0000 0.5000 0.0000
# 6 texture coords

g Block_3_2
usemtl wire_184228153
s 2
f 37/31/29 38/32/29 39/33/29 40/34/29 
s 8
f 41/32/30 40/33/30 39/34/30 42/35/30 
s 16
f 43/35/31 42/36/31 39/33/31 38/34/31 
s 32
f 44/35/32 43/36/32 38/33/32 37/34/32 
s 64
f 40/34/33 41/31/33 44/36/33 37/33/33 
s off
f 44/35/34 41/31/34 42/35/34 43/35/34 
# 6 polygons

#
# object Block_2
#

v  -1.0000 -1.0000 -1.0000
v  1.0000 -1.0000 -1.0000
v  1.0000 -1.0000 1.0000
v  -1.0000 -1.0000 1.0000
v  -1.0000 1.0000 1.0000
v  -1.0000 1.0000 -1.0000
# 6 vertices

vn 0.0000 -1.0000 -0.0000
vn 0.0000 0.0000 1.0000
vn -1.0000 0.0000 -0.0000
vn 0.0000 0.0000 -1.0000
vn 0.7071 0.7071 -0.0000
# 5 vertex normals

vt 1.0000 1.0000 0.0000
vt 0.0000 1.0000 0.0000
vt 0.0000 0.0000 0.0000
vt 1.0000 0.0000 0.0000
# 4 texture coords

g Block_2
usemtl wire_184228153
s 2
f 45/37/35 46/38/35 47/39/35 48/40/35 
s 8
f 48/39/36 47/40/36 49/38/36 
s 64
f 48/40/37 49/37/37 50/38/37 45/39/37 
s 32
f 46/39/38 45/40/38 50/37/38 
s off
f 50/37/39 49/37/39 47/40/39 46/38/39 
# 3 polygons - 2 triangles

#
# object Block_5
#

v  1.0000 -1.0000 1.0000
v  -1.0000 -1.0000 1.0000
v  -1.0000 -1.0000 -1.0000
v  1.0000 -1.0000 -1.0000
v  0.3333 1.0000 -1.0000
v  -1.0000 1.0000 -1.0000
v  -1.0000 1.0000 1.0000
v  0.3333 1.0000 1.0000
# 8 vertices

vn 0.0000 -1.0000 -0.0000
vn 0.0000 1.0000 -0.0000
vn 0.0000 0.0000 1.0000
vn 0.0000 0.0000 -1.0000
vn -1.0000 0.0000 -0.0000
vn 0.9487 0.3162 -0.0000
# 6 vertex normals

vt 0.0000 0.0000 0.0000
vt 1.0000 0.0000 0.0000
vt 1.0000 1.0000 0.0000
vt 0.3333 1.0000 0.0000
vt 0.6667 1.0000 0.0000
vt 0.0000 1.0000 0.0000
vt 0.6667 0.0000 0.0000
vt 0.3333 0.0000 0.0000
# 8 texture coords

g Block_5
usemtl wire_184228153
s 2
f 51/41/40 52/42/40 53/43/40 54/44/40 
s 4
f 55/45/41 56/46/41 57/41/41 58/47/41 
s 8
f 57/46/42 52/41/42 51/42/42 58/45/42 
s 32
f 53/42/43 56/43/43 55/44/43 54/48/43 
s 64
f 52/42/44 57/43/44 56/46/44 53/41/44 
s off
f 58/47/45 51/42/45 54/44/45 55/44/45 
# 6 polygons

